<svg id="Lag_1" data-name="Lag 1" xmlns="http://www.w3.org/2000/svg" viewBox="0 0 157.85 166.23"><defs><style>.cls-1{fill:#f9f6f0;}</style></defs><path class="cls-1" d="M283.81,129.89c-2.3-6.12-139.41-3.83-148.6,6.13s-2.3,141.7.77,152.43,138.64-1.54,147.83-5.36S286.11,136,283.81,129.89ZM253.94,195H229.43c-5.33-23.42-33.42-5.6-25.38,32.87,1.22,2.08,17.24,4.58,30.16-3.89,6.53-4.28,1.6,20-1.46,23.84s-30.13-8.39-30.13-8.39l.38,49.66-21.82,1.05c-3.31-24.9-15.66-68.49-8.27-105.07C186.66,91.16,299.3,187.32,253.94,195Z" transform="translate(-130.61 -126.51)"/></svg>