<svg id="Lag_1" data-name="Lag 1" xmlns="http://www.w3.org/2000/svg" viewBox="0 0 277.6 174.08"><defs><style>.cls-1{fill:#db7575;}</style></defs><path class="cls-1" d="M370.89,310.41H105.3l6,6v-162l-6,6H370.89l-6-6v162c0,7.72,12,7.73,12,0v-162a6.08,6.08,0,0,0-6-6H105.3a6.08,6.08,0,0,0-6,6v162a6.09,6.09,0,0,0,6,6H370.89C378.62,322.41,378.63,310.41,370.89,310.41Z" transform="translate(-99.3 -148.32)"/><path class="cls-1" d="M102.27,159.6l116.33,71,16.47,10c6.61,4,12.65-6.34,6.05-10.36L124.79,159.28l-16.46-10c-6.61-4-12.65,6.34-6.06,10.36Z" transform="translate(-99.3 -148.32)"/><path class="cls-1" d="M367.87,149.24,251.54,220.19l-16.47,10c-6.59,4-.56,14.4,6.05,10.36l116.34-71,16.46-10c6.59-4,.56-14.4-6.05-10.36Z" transform="translate(-99.3 -148.32)"/></svg>