<svg id="Lag_1" data-name="Lag 1" xmlns="http://www.w3.org/2000/svg" viewBox="0 0 277.59 174.14"><defs><style>.cls-1{fill:#f9f6f0;}</style></defs><path class="cls-1" d="M271.59,162.09H6l6,6V6.09l-6,6H271.59l-6-6v162c0,7.72,12,7.73,12,0V6.09a6.07,6.07,0,0,0-6-6H6a6.07,6.07,0,0,0-6,6v162a6.1,6.1,0,0,0,6,6H271.59C279.32,174.09,279.33,162.09,271.59,162.09Z" transform="translate(0 0.05)"/><path class="cls-1" d="M3,11.28l116.33,71,16.47,10c6.61,4,12.65-6.34,6-10.36L25.49,11,9,1C2.42-3-3.62,7.3,3,11.32Z" transform="translate(0 0.05)"/><path class="cls-1" d="M268.57.92l-116.33,71-16.47,10c-6.59,4-.56,14.4,6,10.36l116.34-71,16.46-10c6.59-4,.56-14.4-6.05-10.36Z" transform="translate(0 0.05)"/></svg>