<svg id="Lag_1" data-name="Lag 1" xmlns="http://www.w3.org/2000/svg" viewBox="0 0 212.21 225.15"><defs><style>.cls-1{fill:#fff;stroke:#db7575;stroke-miterlimit:10;}.cls-2{fill:#db7575;}</style></defs><path class="cls-1" d="M251.72,262.9" transform="translate(-178.06 -93.56)"/><path class="cls-2" d="M348.57,151.82c12.82-22.2,20.93-46.82,6.27-55.29s-37.28,1.64-50.1,23.84-24,39.69-9.34,48.16S335.75,174,348.57,151.82Z" transform="translate(-178.06 -93.56)"/><path class="cls-2" d="M195.78,295.49s80.55,65.82,155.91-24.17c93.52-103.15-12.41-165.54-12.41-165.54L315,169s66.77,9.23,10.84,75.36S241.5,262.9,241.5,262.9Z" transform="translate(-178.06 -93.56)"/><path class="cls-2" d="M238.13,286.52c18.13-18.13,20.69-30.62,8.72-42.59s-30.51-12.06-48.64,6.07-26.55,35.7-14.58,47.67S220,304.64,238.13,286.52Z" transform="translate(-178.06 -93.56)"/></svg>