<svg id="Lag_1" data-name="Lag 1" xmlns="http://www.w3.org/2000/svg" viewBox="0 0 212.21 225.16"><defs><style>.cls-1{fill:#fff;stroke:#db7575;stroke-miterlimit:10;}.cls-2{fill:#f9f6f0;}</style></defs><path class="cls-1" d="M73.66,169.34" transform="translate(0.01 0.01)"/><path class="cls-2" d="M170.51,58.26c12.82-22.2,20.93-46.82,6.27-55.29s-37.28,1.64-50.1,23.84-24,39.69-9.34,48.16S157.69,80.44,170.51,58.26Z" transform="translate(0.01 0.01)"/><path class="cls-2" d="M17.72,201.93s80.55,65.82,155.91-24.17C267.15,74.61,161.22,12.22,161.22,12.22L136.94,75.44s66.77,9.23,10.84,75.36-84.34,18.54-84.34,18.54Z" transform="translate(0.01 0.01)"/><path class="cls-2" d="M60.07,193c18.13-18.13,20.69-30.62,8.72-42.59s-30.51-12.06-48.64,6.07S-6.4,192.14,5.57,204.11,41.94,211.08,60.07,193Z" transform="translate(0.01 0.01)"/></svg>