<svg xmlns="http://www.w3.org/2000/svg" viewBox="0 0 460.37 472.99"><defs><style>.cls-1{fill:#fc5c00;}.cls-2,.cls-6,.cls-7{fill:none;}.cls-2,.cls-3{stroke:#ff0303;}.cls-2,.cls-3,.cls-4,.cls-5,.cls-6,.cls-7,.cls-8,.cls-9{stroke-miterlimit:10;}.cls-3,.cls-4,.cls-8{fill:#e26de2;}.cls-4,.cls-6,.cls-9{stroke:red;}.cls-5{fill:#fff;stroke:#000;}.cls-7,.cls-8{stroke:#fc0303;}.cls-9{fill:#ff3;stroke-width:0.5px;}</style></defs><g id="Lag_2" data-name="Lag 2"><path class="cls-1" d="M306.3,311.49a45.6,45.6,0,0,1,1.1,11.38c3.61,3.55,6.14-2.7,3.41-16.06a5.67,5.67,0,0,1-.05-1.92A5.69,5.69,0,0,0,306.3,311.49Z" transform="translate(-26.91 -10.83)"/><path class="cls-1" d="M316.68,259.93c-6-1.63-9.8.63-12.18,5.06a10.57,10.57,0,0,1,7.67-.38c19.56,5.34,8.24,51,7.24,59,1.8,1.06,4.56-2.14,4.59-3.5C322.13,321.21,338.34,265.84,316.68,259.93Z" transform="translate(-26.91 -10.83)"/><path class="cls-2" d="M312.89,293.48a9,9,0,0,0,.67-2.27c.5-3.1-.57-5.85-2.38-6.14l-.21,0-.19,0c-1.82-.3-3.69,2-4.19,5.08s.57,5.85,2.38,6.15h.2l.2.05C310.7,296.51,312.06,295.34,312.89,293.48Z" transform="translate(-26.91 -10.83)"/><path class="cls-3" d="M319.41,323.61c1-8,12.32-53.66-7.24-59a10.57,10.57,0,0,0-7.67.38c-15.05,7.45-4.13,58.72-4.13,58.72,3.38,7,6.63,6.11,7-.84a45.6,45.6,0,0,0-1.1-11.38,5.69,5.69,0,0,1,4.46-6.6c2.58-.45,5.07,1.46,3.89,7.47-4.67,23.86,4.78,14.95,4.84,12.43C319.31,324.9,319.3,324.47,319.41,323.61Zm-10-27.31-.2-.05H309c-1.81-.3-2.88-3.05-2.38-6.15s2.37-5.38,4.19-5.08l.19,0,.21,0c1.81.29,2.88,3,2.38,6.14a9,9,0,0,1-.67,2.27C312.06,295.34,310.7,296.51,309.37,296.3Z" transform="translate(-26.91 -10.83)"/><path class="cls-1" d="M309.17,296.25l.2.05c1.33.21,2.69-1,3.52-2.82a2.59,2.59,0,0,1-.51.18C311.59,295.29,310.38,296.32,309.17,296.25Z" transform="translate(-26.91 -10.83)"/><path class="cls-1" d="M312.31,293.73a2.11,2.11,0,0,1-.79,0c-1.82-.29-2.89-3-2.39-6.14a9,9,0,0,1,.67-2.27c-1.34.64-2.51,2.51-2.88,4.87-.49,3,.49,5.64,2.18,6.09C310.31,296.39,311.52,295.36,312.31,293.73Z" transform="translate(-26.91 -10.83)"/><path class="cls-1" d="M195.84,96.94s-8.44-52.22-6.33-54,24.64-15.58,25.33-.46c.56,7.49-14.52,8.57-13.18,16.1,1.41,1.28,10.68-4.72,14.29,2.08,4.3,10.54-10.54,9.11-10.95,15.17.72.84-1,16.73,13.48,6.9C230.15,77.84,220.72,120.41,195.84,96.94Z" transform="translate(-26.91 -10.83)"/><path class="cls-1" d="M317,59.66c-.19-.51.71-49.35-13.94-15.2-1.32,7.13-7.14,49.63,3.66,44,3.32-.77-3.18-11.7,3.2-21.7C314,60.4,315,82,316.14,83.58c0,1,3.7,16.07,11.69-.12s8.27-49.11,4.09-48.89c-2.38.13-7.42-8.82-9.95,27.52C322,62.09,318.6,70.62,317,59.66Z" transform="translate(-26.91 -10.83)"/><path class="cls-1" d="M271.8,141.85s-22.94,93.32-1.13,92.75c19.56-.51,25.71-25.15,20.62-25.44.49,1,.67-.84-16.27,3.06-12.83,2.95,16.58-53.78,14.33-54.43C289.72,156.09,299.46,131.79,271.8,141.85Z" transform="translate(-26.91 -10.83)"/><path class="cls-1" d="M362.66,150.22c-.24-.24-9.21,14.39,12.88,34.46,4,4.88,5.13,21.72-10,35.91s13.11,18.13,14.17,9.34c.75-6.21,35.18-93.06,11.59-80.35-.8.32-4.62,3.42-6.6,20,0,0,1.61,9-4.51,2.57S374.26,139.27,362.66,150.22Z" transform="translate(-26.91 -10.83)"/><path class="cls-1" d="M220.21,284s-4.82,13.79,3,12.53,7.37-.74,8.11,2.59-4.82,37.36,8,36.2c13.28-1.2,3-38.49,5.62-39.53,0,0,1.49-5.77,9.12-5.24s5.71-13.69-9.06-10.43C233.28,280.83,221,281.33,220.21,284Z" transform="translate(-26.91 -10.83)"/><path class="cls-1" d="M305.53,366c2.64,2.66-24.5,16.15-18.66,30.31s22.61,27.88,23.15,42.21c-.48.59,3.59,30.38-36.12,27.26-29-12.31-13-38.17-12.31-37.45,6-5.11,10.77-6.37,8.87,4.64-.6,3.68,5.81,12.39,9.79,7.27,2.56-3.28-4.18-12.9-8.47-21.7-3.11-6.37,1.68-23.28,2.65-22.63,0,0-8.74,8.07-11.12,7.81s8.21-9,10.06-13.63,7.84-24.63,21.57-25C305.89,364.79,304.44,365.2,305.53,366Z" transform="translate(-26.91 -10.83)"/><path class="cls-1" d="M316,135.15s-22.94,93.32-1.13,92.75c19.56-.51,25.71-25.14,20.61-25.44.5,1,.68-.83-16.26,3.06-12.83,2.95,16.58-53.78,14.33-54.42C334,149.39,343.7,125.09,316,135.15Z" transform="translate(-26.91 -10.83)"/><path class="cls-1" d="M154.77,314.45c-.29-.46-9.24-48.48-16.71-12.08.14,7.25,3,50.06,12.44,42.32,3.1-1.42-5.47-10.81-1.24-21.89,2.68-7,8.1,14,9.49,15.26.17,1,6.85,15,11.43-2.47s-1.79-49.78-5.85-48.72c-2.3.6-9-7.14-4.2,29C160.13,315.83,158.55,324.87,154.77,314.45Z" transform="translate(-26.91 -10.83)"/><path class="cls-1" d="M352.23,292.92c-.2-.5.71-49.34-13.94-15.2-1.32,7.13-7.15,49.64,3.66,44,3.32-.77-3.18-11.69,3.19-21.69,4-6.33,5.13,15.31,6.23,16.86-.05,1,3.69,16.06,11.69-.12s8.27-49.12,4.09-48.9c-2.38.13-7.43-8.81-9.95,27.53C357.2,295.36,353.83,303.89,352.23,292.92Z" transform="translate(-26.91 -10.83)"/><path class="cls-1" d="M374.91,355.48c2.65,2.66-24.49,16.15-18.66,30.31,5.78,14,22.62,27.87,23.16,42.21-.49.59,3.59,30.38-36.13,27.26-29-12.31-13-38.17-12.3-37.45,6-5.12,10.77-6.37,8.86,4.63-.59,3.69,5.81,12.4,9.8,7.28,2.55-3.28-4.18-12.9-8.47-21.7-3.11-6.37,1.67-23.28,2.64-22.63,0,0-8.73,8.07-11.11,7.81s8.2-9,10.06-13.63,7.83-24.63,21.57-25C375.28,354.25,373.82,354.66,374.91,355.48Z" transform="translate(-26.91 -10.83)"/><path class="cls-4" d="M191.33,101.63s-8.44-52.23-6.33-54,24.64-15.58,25.33-.45c.55,7.49-14.53,8.56-13.18,16.09,1.41,1.28,10.68-4.72,14.29,2.08,4.3,10.54-10.54,9.11-10.95,15.17.72.84-1,16.74,13.48,6.9C225.63,82.52,216.21,125.09,191.33,101.63Z" transform="translate(-26.91 -10.83)"/><path class="cls-4" d="M312.49,64.34c-.2-.51.71-49.35-13.94-15.2-1.32,7.13-7.14,49.64,3.66,44,3.32-.77-3.18-11.7,3.2-21.69,4-6.33,5.12,15.3,6.22,16.86-.05,1,3.7,16.06,11.69-.13s8.27-49.11,4.09-48.89c-2.38.13-7.42-8.81-10,27.52C317.46,66.77,314.09,75.31,312.49,64.34Z" transform="translate(-26.91 -10.83)"/><path class="cls-4" d="M267.29,146.53s-22.94,93.32-1.13,92.75c19.56-.51,25.71-25.15,20.61-25.44.5,1,.68-.84-16.26,3.06-12.83,2.95,16.57-53.78,14.33-54.43C285.2,160.77,294.94,136.47,267.29,146.53Z" transform="translate(-26.91 -10.83)"/><path class="cls-4" d="M358.15,154.91c-.24-.25-9.22,14.39,12.88,34.45,4.05,4.88,5.13,21.72-10,35.91s13.11,18.14,14.17,9.34c.74-6.21,35.17-93.06,11.59-80.35-.8.32-4.63,3.42-6.6,20,0,0,1.61,9-4.51,2.57S369.74,144,358.15,154.91Z" transform="translate(-26.91 -10.83)"/><path class="cls-4" d="M215.7,288.68s-4.82,13.79,3,12.53,7.38-.74,8.12,2.59-4.82,37.36,8,36.2c13.28-1.2,3-38.49,5.62-39.53,0,0,1.49-5.77,9.12-5.24s5.71-13.69-9.06-10.43C228.77,285.51,216.46,286,215.7,288.68Z" transform="translate(-26.91 -10.83)"/><path class="cls-4" d="M301,370.7c2.65,2.66-24.49,16.15-18.66,30.31s22.62,27.88,23.16,42.22c-.49.58,3.59,30.37-36.12,27.25-29-12.31-13-38.17-12.31-37.44,6-5.12,10.77-6.38,8.86,4.63-.59,3.68,5.81,12.4,9.8,7.28,2.55-3.29-4.18-12.91-8.47-21.71-3.11-6.37,1.67-23.28,2.64-22.63,0,0-8.73,8.08-11.11,7.81s8.2-9,10.06-13.63,7.83-24.62,21.57-25C301.38,369.47,299.93,369.88,301,370.7Z" transform="translate(-26.91 -10.83)"/><path class="cls-4" d="M311.53,139.84s-22.94,93.31-1.13,92.75c19.56-.52,25.7-25.15,20.61-25.45.5,1,.68-.83-16.26,3.06-12.83,3,16.57-53.78,14.33-54.42C329.44,154.07,339.18,129.77,311.53,139.84Z" transform="translate(-26.91 -10.83)"/><path class="cls-4" d="M150.26,319.13c-.29-.45-9.24-48.48-16.71-12.08.14,7.25,3,50.06,12.43,42.33,3.1-1.43-5.47-10.82-1.23-21.9,2.67-7,8.1,14,9.49,15.26.16,1,6.85,15,11.42-2.47s-1.79-49.78-5.84-48.72c-2.3.61-9-7.14-4.2,29C155.62,320.52,154,329.55,150.26,319.13Z" transform="translate(-26.91 -10.83)"/><path class="cls-4" d="M347.72,297.6c-.2-.5.7-49.34-13.94-15.2-1.33,7.13-7.15,49.64,3.66,44,3.32-.77-3.18-11.69,3.19-21.69,4-6.32,5.13,15.31,6.23,16.86-.05,1,3.69,16.06,11.69-.12s8.27-49.12,4.08-48.9c-2.37.13-7.42-8.81-9.94,27.53C352.69,300,349.32,308.57,347.72,297.6Z" transform="translate(-26.91 -10.83)"/><path class="cls-4" d="M370.4,360.16c2.65,2.66-24.49,16.15-18.66,30.31,5.78,14,22.61,27.88,23.16,42.21-.49.59,3.59,30.38-36.13,27.26-29-12.31-13-38.17-12.3-37.45,6-5.11,10.76-6.37,8.86,4.64-.59,3.68,5.81,12.39,9.79,7.27,2.56-3.28-4.17-12.9-8.46-21.7-3.11-6.37,1.67-23.28,2.64-22.63,0,0-8.73,8.07-11.11,7.81s8.2-9,10.05-13.63,7.84-24.63,21.57-25C370.77,358.93,369.31,359.34,370.4,360.16Z" transform="translate(-26.91 -10.83)"/><path class="cls-5" d="M278.12,50.42" transform="translate(-26.91 -10.83)"/><path class="cls-1" d="M226.49,431.39c-6.94-1.63-5.43-18.58-5.43-18.58-1.26,1.12,8.65-49.53-6.19-51.66-6.15-.89-10.79,2-14.6,7.22a13.13,13.13,0,0,1,10.09-2.54c14.84,2.13,4.93,52.78,6.19,51.66,0,0-1.52,16.95,5.42,18.58,1.53,2.44,13.17-9.26,11.41,4.45-1.24,9.65-1.95,19.33-5.76,25.56,7.93-4.93,8.65-17.62,10.27-30.24C239.65,422.13,228,433.83,226.49,431.39Z" transform="translate(-26.91 -10.83)"/><path class="cls-1" d="M144.55,438.16c-.43,9.42,10.59,6.14,10.59,6.14,5.27-1.32,9.53-4.62,13.12-9.16a21.49,21.49,0,0,1-8.61,4.48s-11,3.27-10.59-6.14c0-.89.11-1.68.21-2.38C147,430.35,144.87,431.23,144.55,438.16Z" transform="translate(-26.91 -10.83)"/><path class="cls-1" d="M150.28,423.08l3.15,2.62a4.3,4.3,0,0,1,.79.87,16.29,16.29,0,0,1,2.07,1.07c3.08,1.82,4.81-4,1.66-6.62l-3.16-2.62s-14.38-9.3-22.7,3.52C140.24,416.59,150.28,423.08,150.28,423.08Z" transform="translate(-26.91 -10.83)"/><path class="cls-1" d="M176,467.83c14.37-12.28,17.49-37.5,23.07-48.09C190.63,422.22,189.36,451.16,176,467.83Z" transform="translate(-26.91 -10.83)"/><path class="cls-6" d="M206.34,406.26a10.82,10.82,0,0,0,.43-3.24c-.06-4.37,0-8.19-2.57-8.88a3.61,3.61,0,0,0-2.94.61,10,10,0,0,0-3.74,5.78c-1.13,4.22.2,7.71,2.57,8.88C202.78,410.74,205.36,409.5,206.34,406.26Z" transform="translate(-26.91 -10.83)"/><path class="cls-4" d="M222,436.07c-6.94-1.63-5.42-18.58-5.42-18.58-1.26,1.12,8.65-49.53-6.19-51.66a13.13,13.13,0,0,0-10.09,2.54c-14.09,10.46-17.64,48.58-32,66.77-3.59,4.54-7.85,7.84-13.12,9.16,0,0-11,3.28-10.59-6.14.32-6.93,2.41-7.81,4.72-7.06a12.87,12.87,0,0,1,2.51,1.22c2.77,1.64,4.44-2.91,2.44-5.75a4.3,4.3,0,0,0-.79-.87l-3.15-2.62s-10-6.49-18.19-1.16c-5.25,3.43-9.72,11.78-10.21,30-1.25,46.36,42.17,29.6,46.26,23.08a32.49,32.49,0,0,0,7.81-7.13c13.41-16.67,14.68-45.61,23.07-48.09a5,5,0,0,1,3.71.47c4,3.93-6.62,50.63,15,52.47a13.39,13.39,0,0,0,9.89-6.6c3.81-6.23,4.52-15.91,5.76-25.56C235.14,426.81,223.5,438.51,222,436.07Zm-24.45-35.54a10,10,0,0,1,3.74-5.78,3.61,3.61,0,0,1,2.94-.61c2.55.69,2.51,4.51,2.57,8.88a10.82,10.82,0,0,1-.43,3.24c-1,3.24-3.56,4.48-6.25,3.15C197.72,408.24,196.39,404.75,197.52,400.53Z" transform="translate(-26.91 -10.83)"/><path class="cls-1" d="M203,406c-2.37-1.17-3.71-4.66-2.57-8.88a12.47,12.47,0,0,1,.88-2.34,10,10,0,0,0-3.74,5.78c-1.13,4.22.2,7.71,2.57,8.88,2.69,1.33,5.27.09,6.25-3.15A4.22,4.22,0,0,1,203,406Z" transform="translate(-26.91 -10.83)"/><path class="cls-6" d="M206.55,403c-.05-4.37,0-8.2-2.57-8.88s-5.54,2.17-6.67,6.39.2,7.71,2.57,8.88C203.34,411.12,206.62,408.59,206.55,403Z" transform="translate(-26.91 -10.83)"/><path class="cls-1" d="M150.27,216.59c-.43,9.41,10.59,6.14,10.59,6.14,5.27-1.32,9.53-4.62,13.12-9.16a21.62,21.62,0,0,1-8.61,4.48s-11,3.27-10.59-6.15c0-.89.11-1.68.21-2.38C152.68,208.78,150.58,209.66,150.27,216.59Z" transform="translate(-26.91 -10.83)"/><path class="cls-1" d="M181.67,246.25C196,234,199.16,208.76,204.74,198.17,196.35,200.65,195.08,229.59,181.67,246.25Z" transform="translate(-26.91 -10.83)"/><path class="cls-1" d="M156,201.51l3.15,2.62a4.27,4.27,0,0,1,.78.87,14.64,14.64,0,0,1,2.08,1.07c3.07,1.82,4.8-4,1.65-6.62l-3.15-2.62s-14.39-9.3-22.7,3.52C146,195,156,201.51,156,201.51Z" transform="translate(-26.91 -10.83)"/><path class="cls-1" d="M232.2,209.82c-6.94-1.63-5.42-18.59-5.42-18.59-1.26,1.13,8.65-49.52-6.19-51.66-6.15-.88-10.79,2.05-14.6,7.23a13.13,13.13,0,0,1,10.09-2.54c14.84,2.13,4.93,52.78,6.19,51.66,0,0-1.52,17,5.42,18.58,1.53,2.44,13.17-9.26,11.41,4.45-1.24,9.64-1.95,19.32-5.76,25.55,7.93-4.93,8.65-17.61,10.27-30.23C245.37,200.56,233.73,212.25,232.2,209.82Z" transform="translate(-26.91 -10.83)"/><path class="cls-6" d="M206.56,188.3c2.69,1.32,5.27.08,6.25-3.16a10.53,10.53,0,0,0,.42-3.24c0-4.36,0-8.19-2.57-8.88a3.67,3.67,0,0,0-2.93.61,10,10,0,0,0-3.74,5.79C202.86,183.64,204.19,187.13,206.56,188.3Z" transform="translate(-26.91 -10.83)"/><path class="cls-4" d="M227.69,214.5c-6.94-1.63-5.42-18.58-5.42-18.58-1.26,1.12,8.65-49.53-6.19-51.66A13.13,13.13,0,0,0,206,146.8c-14.09,10.46-17.64,48.58-32,66.77-3.59,4.54-7.85,7.84-13.12,9.16,0,0-11,3.27-10.59-6.14.31-6.93,2.41-7.81,4.72-7.07a13.15,13.15,0,0,1,2.5,1.23c2.78,1.64,4.44-2.92,2.44-5.75a4.27,4.27,0,0,0-.78-.87L156,201.51s-10-6.49-18.19-1.16c-5.25,3.43-9.73,11.78-10.21,30-1.25,46.36,42.16,29.6,46.26,23.08a32.54,32.54,0,0,0,7.81-7.14c13.41-16.66,14.68-45.6,23.07-48.08a5,5,0,0,1,3.71.47c4,3.93-6.62,50.63,15,52.47a13.39,13.39,0,0,0,9.89-6.61c3.81-6.23,4.52-15.91,5.76-25.55C240.86,205.24,229.22,216.94,227.69,214.5ZM204,179.42a10,10,0,0,1,3.74-5.79,3.67,3.67,0,0,1,2.93-.61c2.56.69,2.52,4.52,2.57,8.88a10.53,10.53,0,0,1-.42,3.24c-1,3.24-3.56,4.48-6.25,3.16C204.19,187.13,202.86,183.64,204,179.42Z" transform="translate(-26.91 -10.83)"/><path class="cls-1" d="M209.41,184.86c-2.37-1.17-3.7-4.67-2.57-8.88a12.58,12.58,0,0,1,.89-2.35,10,10,0,0,0-3.74,5.79c-1.13,4.22.2,7.71,2.57,8.88,2.69,1.32,5.27.08,6.25-3.16A4.24,4.24,0,0,1,209.41,184.86Z" transform="translate(-26.91 -10.83)"/><path class="cls-6" d="M213,181.9c-.05-4.37,0-8.19-2.57-8.88s-5.54,2.18-6.67,6.4.2,7.71,2.57,8.87C209.81,190,213.09,187.47,213,181.9Z" transform="translate(-26.91 -10.83)"/><path class="cls-1" d="M213.93,314.43c-.76.55,3.62-23.86-11.85-27.49-.35-.09-11.58-1.18-17,7.64a20.38,20.38,0,0,1,12.49-3c15.47,3.63,11.09,28,11.85,27.49a27.43,27.43,0,0,1-4.48,17C210.32,332.17,214.39,324.45,213.93,314.43Z" transform="translate(-26.91 -10.83)"/><path class="cls-6" d="M195,330.07a2.14,2.14,0,0,0,1.19-.17,4.5,4.5,0,0,0,2.73-2.77,9,9,0,0,0,.67-2.27c.5-3.1-.57-5.85-2.38-6.14a2.11,2.11,0,0,0-1.11.13c-1.57.31-3.05,2.38-3.48,5.08C192.14,327,193.21,329.78,195,330.07Z" transform="translate(-26.91 -10.83)"/><path class="cls-4" d="M197.57,291.62a20.38,20.38,0,0,0-12.49,3c-4.63,3.07-8.47,9.17-7.09,21.19,3.12,27.4,6.43,26.14,14.14,28,4.66,0,9.45-2.78,12.81-7.6a27.43,27.43,0,0,0,4.48-17C208.66,319.66,213,295.25,197.57,291.62Zm-4.93,32.31c.43-2.7,1.91-4.77,3.48-5.08a2.11,2.11,0,0,1,1.11-.13c1.81.29,2.88,3,2.38,6.14a9,9,0,0,1-.67,2.27,4.5,4.5,0,0,1-2.73,2.77,2.14,2.14,0,0,1-1.19.17C193.21,329.78,192.14,327,192.64,323.93Z" transform="translate(-26.91 -10.83)"/><path class="cls-1" d="M196.21,329.9a4.5,4.5,0,0,0,2.73-2.77,2,2,0,0,1-.41.15A5,5,0,0,1,196.21,329.9Z" transform="translate(-26.91 -10.83)"/><path class="cls-4" d="M195.42,330c-1.82-.29-2.88-3-2.39-6.15.38-2.35,1.55-4.22,2.89-4.87l.2-.08c-1.57.31-3.05,2.38-3.48,5.08-.5,3.1.57,5.85,2.38,6.14a2.14,2.14,0,0,0,1.19-.17A1.92,1.92,0,0,1,195.42,330Z" transform="translate(-26.91 -10.83)"/><path class="cls-1" d="M198.53,327.28a1.93,1.93,0,0,1-.89.07c-1.82-.29-2.89-3-2.39-6.15a9.24,9.24,0,0,1,.67-2.27c-1.34.65-2.51,2.52-2.89,4.87-.49,3.11.57,5.86,2.39,6.15a1.92,1.92,0,0,0,.79-.05A5,5,0,0,0,198.53,327.28Z" transform="translate(-26.91 -10.83)"/><path class="cls-1" d="M167.1,100.83c-1.82-.3-2.89-3-2.39-6.15a9.7,9.7,0,0,1,.67-2.27c-1.33.65-2.5,2.52-2.88,4.87-.5,3.1.57,5.86,2.38,6.15,1.33.21,2.69-1,3.52-2.82A2.13,2.13,0,0,1,167.1,100.83Z" transform="translate(-26.91 -10.83)"/><path class="cls-1" d="M152.39,73c-1.81-.3-2.88-3-2.38-6.15a8.71,8.71,0,0,1,.67-2.27c-1.34.64-2.51,2.52-2.89,4.87-.5,3.1.57,5.85,2.38,6.15,1.34.21,2.7-1,3.53-2.82A2.24,2.24,0,0,1,152.39,73Z" transform="translate(-26.91 -10.83)"/><path class="cls-1" d="M163.65,74.24C176.52,33,142.35,50.77,136.88,54.5c-1.33.09-2.1,1.35-2.45,3.42,9.07-5.14,36.44-16.58,24.71,21,11-3.28,25.06,14.64,18.43,26.15C193,94.78,176.3,70.46,163.65,74.24Z" transform="translate(-26.91 -10.83)"/><path class="cls-7" d="M164.49,103.55c1.81.29,3.69-2,4.19-5.09s-.57-5.85-2.39-6.14-3.69,2-4.19,5.08S162.67,103.26,164.49,103.55Z" transform="translate(-26.91 -10.83)"/><path class="cls-7" d="M149.78,75.7c1.81.29,3.69-2,4.19-5.09s-.57-5.85-2.38-6.14-3.7,2-4.19,5.08S148,75.41,149.78,75.7Z" transform="translate(-26.91 -10.83)"/><path class="cls-8" d="M159.14,78.92c11.73-37.58-15.64-26.14-24.71-21-.87.49-1.58.93-2.06,1.26-9,.62,7.48,54.58,10.22,54.33,21,2.47,31.25-2,35-8.44C184.2,93.56,170.13,75.64,159.14,78.92Zm3,18.48c.5-3.1,2.38-5.37,4.19-5.08s2.89,3,2.39,6.14-2.38,5.38-4.19,5.09S161.6,100.51,162.1,97.4ZM147.4,69.55c.49-3.1,2.37-5.38,4.19-5.08s2.88,3,2.38,6.14-2.38,5.38-4.19,5.09S146.9,72.65,147.4,69.55Z" transform="translate(-26.91 -10.83)"/><path class="cls-1" d="M281.45,26.66c-6-1.62-9.79.63-12.18,5.06a10.57,10.57,0,0,1,7.67-.37c19.57,5.34,8.24,51,7.24,59,1.81,1.06,4.56-2.15,4.6-3.5C286.9,87.94,303.11,32.58,281.45,26.66Z" transform="translate(-26.91 -10.83)"/><path class="cls-1" d="M271.07,78.22a45.77,45.77,0,0,1,1.11,11.38c3.6,3.56,6.13-2.69,3.41-16.06a5.15,5.15,0,0,1,0-1.91A5.68,5.68,0,0,0,271.07,78.22Z" transform="translate(-26.91 -10.83)"/><path class="cls-6" d="M277.61,58.79l0,0a8.71,8.71,0,0,0,.67-2.27c.5-3.1-.57-5.85-2.38-6.14a2.54,2.54,0,0,0-1.31.15c-1.33.65-2.5,2.52-2.88,4.87-.5,3.1.57,5.86,2.38,6.15C275.43,61.74,276.77,60.6,277.61,58.79Z" transform="translate(-26.91 -10.83)"/><path class="cls-4" d="M284.18,90.35c1-8,12.33-53.66-7.24-59a10.57,10.57,0,0,0-7.67.37c-15,7.46-4.12,58.72-4.12,58.72,3.37,7,6.62,6.12,7-.84a45.77,45.77,0,0,0-1.11-11.38,5.68,5.68,0,0,1,4.47-6.59c2.57-.46,5.06,1.46,3.88,7.47C274.75,103,284.21,94,284.26,91.53,284.08,91.64,284.07,91.21,284.18,90.35ZM274.12,61.53c-1.81-.29-2.88-3.05-2.38-6.15.38-2.35,1.55-4.22,2.88-4.87a2.54,2.54,0,0,1,1.31-.15c1.81.29,2.88,3,2.38,6.14a8.71,8.71,0,0,1-.67,2.27l0,0C276.77,60.6,275.43,61.74,274.12,61.53Z" transform="translate(-26.91 -10.83)"/><path class="cls-1" d="M276.36,59.48c-1.49-.24-2.47-2.13-2.51-4.51a10.07,10.07,0,0,1,.12-1.7,9.56,9.56,0,0,1,.67-2.27c-1.33.64-2.5,2.52-2.88,4.87-.5,3.1.57,5.85,2.38,6.15,1.31.21,2.65-.93,3.49-2.75A2.2,2.2,0,0,1,276.36,59.48Z" transform="translate(-26.91 -10.83)"/><ellipse class="cls-6" cx="274.63" cy="56.09" rx="5.69" ry="3.33" transform="translate(148.72 307.49) rotate(-80.86)"/></g><g id="Lag_3" data-name="Lag 3"><path class="cls-1" d="M96.91,356.89c.57-.84-.28-13,3.1-10.31s8,16.8,13.15,13.13,20.62-3.25,13.62.61c-4.67,2.57-14.91,8.3-14.69,11,.23,3,6.74,12.58,9.65,16.59,5.05,6.87-4.41,6.24-15-2.85-2.79-2.39-2.26-10.71-18,9.44s5.35-21.81,5.35-21.81-35.5-.84-24.51-4,24.8-2.27,26.21-4.8S96.91,356.89,96.91,356.89Z" transform="translate(-26.91 -10.83)"/><path class="cls-9" d="M95.91,358.89c.57-.84-.28-13,3.1-10.31s8,16.8,13.15,13.13,20.62-3.25,13.62.61c-4.67,2.57-14.91,8.3-14.69,11,.23,3,6.74,12.58,9.65,16.59,5.05,6.87-4.41,6.24-15-2.85-2.79-2.39-2.26-10.71-18,9.44s5.35-21.81,5.35-21.81-35.5-.84-24.51-4,24.8-2.27,26.21-4.8S95.91,358.89,95.91,358.89Z" transform="translate(-26.91 -10.83)"/><path class="cls-1" d="M114.55,260.28c.58-.31,3.9-7.49,5-4.9s-.7,12.05,3.38,11.58,12.75,4.58,7.56,4.59c-3.46,0-11.07.07-11.8,1.68-.8,1.78-.09,9.27.31,12.46.74,5.48-4.45,2.17-7.62-6.3-.84-2.23,2.06-6.8-13.21-.26S108,268.39,108,268.39s-20-11.56-12.72-9.9,14.82,6.45,16.41,5.45A10.39,10.39,0,0,0,114.55,260.28Z" transform="translate(-26.91 -10.83)"/><path class="cls-9" d="M113.35,261.1c.59-.3,3.9-7.49,5-4.89s-.69,12,3.39,11.57,12.74,4.59,7.56,4.6c-3.46,0-11.08.07-11.8,1.68-.8,1.77-.09,9.26.31,12.45.73,5.49-4.45,2.17-7.63-6.29-.83-2.23,2.07-6.8-13.2-.26s9.85-10.74,9.85-10.74-19.94-11.57-12.71-9.91,14.82,6.45,16.41,5.45A10.36,10.36,0,0,0,113.35,261.1Z" transform="translate(-26.91 -10.83)"/><path class="cls-1" d="M420.44,343.56c.35,1,10.71,7.4,6.54,8.56s-18.29-3.37-18.35,3-9.44,18.61-8.47,10.68c.65-5.29,2-16.94-.32-18.36-2.55-1.56-14.14-1.9-19.09-1.9-8.53.08-2.47-7.22,11.07-10.46,3.58-.85,10,4.45,2.92-20.14S409.28,332,409.28,332s21.49-28.28,17.57-17.55-12.69,21.42-11.46,24S420.44,343.56,420.44,343.56Z" transform="translate(-26.91 -10.83)"/><path class="cls-9" d="M418.27,346.65c.35,1,10.7,7.4,6.53,8.55s-18.28-3.36-18.34,3S397,376.78,398,368.85c.65-5.29,2-16.94-.32-18.36-2.56-1.56-14.14-1.9-19.1-1.9-8.52.08-2.47-7.22,11.08-10.46,3.57-.85,10,4.45,2.92-20.14s14.54,17.12,14.54,17.12,21.48-28.28,17.57-17.55S412,339,413.22,341.61,418.27,346.65,418.27,346.65Z" transform="translate(-26.91 -10.83)"/><path class="cls-1" d="M414.13,228.15c.37-.54-.18-8.41,2-6.67s5.17,10.87,8.51,8.5,13.34-2.11,8.81.39c-3,1.67-9.65,5.37-9.51,7.13.16,1.93,4.37,8.14,6.25,10.73,3.27,4.45-2.85,4-9.68-1.84-1.81-1.55-1.46-6.93-11.67,6.11s3.46-14.12,3.46-14.12-23-.54-15.87-2.56,16.05-1.46,17-3.11A10.19,10.19,0,0,0,414.13,228.15Z" transform="translate(-26.91 -10.83)"/><path class="cls-9" d="M413.49,229.45c.36-.55-.19-8.42,2-6.67s5.17,10.86,8.51,8.49,13.34-2.1,8.82.39c-3,1.67-9.65,5.38-9.51,7.13.15,1.94,4.36,8.14,6.24,10.74,3.27,4.44-2.85,4-9.68-1.85-1.8-1.55-1.46-6.93-11.67,6.11s3.46-14.11,3.46-14.11-23-.55-15.86-2.56,16.05-1.47,17-3.11A10.35,10.35,0,0,0,413.49,229.45Z" transform="translate(-26.91 -10.83)"/><path class="cls-1" d="M416.58,84.6c1-.09,9.95-8.39,10-4.06s-8.05,16.76-2,18.48,15.47,14,8.08,11c-4.94-2-15.82-6.4-17.8-4.53-2.18,2.06-5.56,13.15-6.86,17.93-2.17,8.24-7.62.48-7.17-13.44.11-3.67,6.92-8.48-18.67-8.11s20.34-9.53,20.34-9.53S380.88,64.16,390.2,70.76s17.33,17.88,20.19,17.38S416.58,84.6,416.58,84.6Z" transform="translate(-26.91 -10.83)"/><path class="cls-9" d="M414.61,87.27c1-.09,9.95-8.39,10-4.06s-8.05,16.76-2,18.48,15.47,14,8.08,11c-4.94-2-15.83-6.4-17.81-4.53-2.17,2.06-5.55,13.15-6.85,17.93-2.17,8.24-7.62.48-7.17-13.44.11-3.67,6.92-8.47-18.67-8.11S400.54,95,400.54,95,378.9,66.83,388.23,73.43s17.33,17.88,20.19,17.38S414.61,87.27,414.61,87.27Z" transform="translate(-26.91 -10.83)"/><path class="cls-1" d="M139.13,137.33c.23-1-4.83-12.08-.71-10.74s13.36,12.93,16.92,7.69,18.16-10.28,13-4.22c-3.47,4.06-11.05,13-9.9,15.48,1.27,2.71,10.73,9.41,14.86,12.15,7.14,4.65-1.94,7.38-15,2.58-3.45-1.27-5.87-9.24-13.58,15.16S142,153.12,142,153.12s-33.55,11.67-24.35,4.9,22.43-10.82,22.86-13.69S139.13,137.33,139.13,137.33Z" transform="translate(-26.91 -10.83)"/><path class="cls-9" d="M136.87,138.61c.23-1-4.82-12.09-.71-10.74s13.37,12.92,16.92,7.68,18.16-10.27,13-4.21c-3.48,4-11.06,13-9.9,15.47,1.26,2.72,10.72,9.41,14.85,12.15,7.14,4.66-1.94,7.39-15,2.58-3.45-1.27-5.87-9.24-13.58,15.17s-2.64-22.31-2.64-22.31-33.54,11.67-24.34,4.89,22.43-10.82,22.86-13.69S136.87,138.61,136.87,138.61Z" transform="translate(-26.91 -10.83)"/><path class="cls-1" d="M115,40.91c.54-.14,4.69-5.45,5.08-3.09s-2.92,9.85.56,10.25,9.67,6.28,5.37,5.28c-2.87-.67-9.19-2.09-10.11-.9s-1.87,7.67-2.16,10.39c-.45,4.69-4.11.94-5.1-6.7-.26-2,3-5.24-10.9-2.78s10.26-7,10.26-7S93.75,32.91,99.42,35.69s11,8.22,12.55,7.7A8.77,8.77,0,0,0,115,40.91Z" transform="translate(-26.91 -10.83)"/><path class="cls-9" d="M113.89,41.36c.54-.14,4.69-5.45,5.08-3.09s-2.92,9.85.56,10.25,9.67,6.28,5.37,5.28c-2.87-.66-9.19-2.09-10.11-.89s-1.87,7.66-2.16,10.38c-.45,4.69-4.11.94-5.1-6.7-.26-2,3-5.23-10.9-2.78s10.26-7,10.26-7S92.6,33.36,98.27,36.14s11,8.23,12.55,7.7A8.77,8.77,0,0,0,113.89,41.36Z" transform="translate(-26.91 -10.83)"/><path class="cls-1" d="M76.37,131.84c.19,1,9.28,9.12,5,9.54s-17.44-6.45-18.58-.22-12.49,16.72-10.18,9.08c1.55-5.11,4.88-16.36,2.83-18.15-2.25-2-13.61-4.3-18.49-5.14-8.41-1.39-1.19-7.54,12.71-8.41,3.66-.23,9.09,6.1,6.32-19.35s11.4,19.36,11.4,19.36,26-24.18,20.31-14.28S71.5,123.21,72.26,126,76.37,131.84,76.37,131.84Z" transform="translate(-26.91 -10.83)"/><path class="cls-9" d="M75.07,134.16c.18,1,9.28,9.12,5,9.54s-17.44-6.45-18.58-.22S49,160.2,51.29,152.56c1.54-5.11,4.88-16.36,2.83-18.15-2.25-2-13.61-4.3-18.49-5.14-8.41-1.39-1.2-7.54,12.7-8.41,3.67-.23,9.1,6.1,6.33-19.35s11.39,19.36,11.39,19.36,26-24.18,20.32-14.28S70.19,125.53,71,128.32,75.07,134.16,75.07,134.16Z" transform="translate(-26.91 -10.83)"/><path class="cls-1" d="M73.76,225.63c-.82.39-5.77,10-7.08,6.38s1.67-16.37-3.92-16-17.08-7-10-6.71c4.71.19,15.09.57,16.17-1.59,1.2-2.37.68-12.61.32-17-.67-7.51,6.2-2.69,10,9,1,3.09-3.22,9.14,18,1.15s-14.07,14-14.07,14,26.47,16.94,16.72,14.25-19.79-9.68-22-8.41S73.76,225.63,73.76,225.63Z" transform="translate(-26.91 -10.83)"/><path class="cls-9" d="M73.17,227.51c-.82.38-5.76,10-7.08,6.37s1.67-16.37-3.92-16-17.08-7-10-6.71c4.72.19,15.09.57,16.18-1.59,1.19-2.36.67-12.61.31-17-.67-7.51,6.2-2.69,10,9,1,3.09-3.21,9.14,18,1.15s-14.07,14-14.07,14S109,233.79,99.29,231.1s-19.8-9.68-22-8.4S73.17,227.51,73.17,227.51Z" transform="translate(-26.91 -10.83)"/><path class="cls-1" d="M408.27,17.17c.67-.36,4.41-8.67,5.68-5.69s-.67,13.87,4,13.28,14.72,5.13,8.76,5.2c-4,.05-12.75.21-13.57,2.07-.9,2,0,10.66.5,14.33.9,6.3-5.1,2.54-8.84-7.16-1-2.56,2.29-7.85-15.21-.15s11.23-12.47,11.23-12.47-23.08-13.09-14.75-11.26,17.13,7.26,19,6.09S408.27,17.17,408.27,17.17Z" transform="translate(-26.91 -10.83)"/><path class="cls-9" d="M406.91,18.13c.67-.36,4.4-8.66,5.68-5.69s-.67,13.87,4,13.28,14.72,5.14,8.75,5.21c-4,.05-12.75.2-13.56,2.06-.9,2,0,10.66.5,14.33.9,6.3-5.11,2.55-8.85-7.16-1-2.56,2.3-7.84-15.2-.15s11.22-12.47,11.22-12.47-23.08-13.09-14.74-11.26,17.12,7.26,18.95,6.09S406.91,18.13,406.91,18.13Z" transform="translate(-26.91 -10.83)"/><path class="cls-1" d="M430.69,163.25c-.55-.85-12-5-8.19-7s18.58-.56,17.3-6.76,5.32-20.18,6-12.23c.48,5.32,1.6,17,4.17,17.89,2.83,1,14.23-1.12,19.07-2.17,8.32-1.86,3.94,6.55-8.62,12.56-3.32,1.59-10.72-2.25,1.38,20.31S444,172.19,444,172.19s-15,32.17-13.48,20.86,7.9-23.62,6.14-25.93S430.69,163.25,430.69,163.25Z" transform="translate(-26.91 -10.83)"/><path class="cls-9" d="M428.89,167c-.55-.86-12-5-8.2-7s18.59-.56,17.31-6.77,5.32-20.17,6-12.22c.49,5.31,1.61,17,4.18,17.89,2.83,1,14.23-1.12,19.07-2.17,8.32-1.87,3.94,6.54-8.63,12.55-3.31,1.59-10.71-2.24,1.39,20.31s-17.82-13.67-17.82-13.67-15.05,32.17-13.48,20.85,7.9-23.61,6.14-25.92S428.89,167,428.89,167Z" transform="translate(-26.91 -10.83)"/><path class="cls-1" d="M467.56,271.32c.91-.19,8.18-8.66,8.65-4.73s-5.59,16.08.13,17,15.52,11.13,8.48,9.15c-4.7-1.32-15.05-4.17-16.66-2.27-1.76,2.1-3.68,12.54-4.37,17-1.12,7.72-6.88,1.23-7.92-11.48-.27-3.35,5.42-8.43-17.82-5.44s17.51-10.77,17.51-10.77-22.6-23.38-13.43-18.34,17.62,14.46,20.17,13.71S467.56,271.32,467.56,271.32Z" transform="translate(-26.91 -10.83)"/><path class="cls-9" d="M466.55,273.38c.91-.19,8.18-8.66,8.65-4.73s-5.59,16.08.13,17,15.52,11.13,8.48,9.15c-4.7-1.32-15.05-4.18-16.66-2.27-1.76,2.1-3.69,12.54-4.37,17-1.12,7.72-6.88,1.23-7.92-11.48-.28-3.35,5.42-8.43-17.82-5.44s17.51-10.78,17.51-10.78-22.6-23.37-13.43-18.33,17.62,14.46,20.17,13.71S466.55,273.38,466.55,273.38Z" transform="translate(-26.91 -10.83)"/><path class="cls-1" d="M59,315.15c-.28.79,3.25,9.83-.19,8.63s-10.55-10.74-14-6.65-16.41,7.71-11.48,3C36.59,317,43.79,310,43,308c-.88-2.21-8.53-7.86-11.88-10.17-5.8-3.94,2.23-5.86,13.12-1.63,2.88,1.12,4.36,7.58,12.83-11.76s.6,18,.6,18S87.41,294,79,299.2s-20.12,8-20.71,10.31S59,315.15,59,315.15Z" transform="translate(-26.91 -10.83)"/><path class="cls-9" d="M57,317.4c-.27.79,3.25,9.82-.19,8.63s-10.54-10.75-14-6.65-16.41,7.7-11.48,3c3.29-3.15,10.49-10.1,9.68-12.11-.89-2.22-8.53-7.86-11.88-10.17-5.8-3.94,2.22-5.86,13.12-1.63,2.87,1.11,4.36,7.57,12.83-11.76s.6,18,.6,18,29.76-8.37,21.33-3.21-20.13,8-20.71,10.3S57,317.4,57,317.4Z" transform="translate(-26.91 -10.83)"/></g></svg>