<svg id="Lag_1" data-name="Lag 1" xmlns="http://www.w3.org/2000/svg" viewBox="0 0 295.86 277"><defs><style>.cls-1{fill:#024700;}.cls-2{fill:#005c0a;}.cls-3{fill:#fff;}.cls-4{fill:#ff9112;}.cls-5{fill:#e29c2b;}.cls-6{fill:#ffb52d;}.cls-7{fill:#fff3a4;}</style></defs><path class="cls-1" d="M167.66,378.14c1.58-2.53,145.23-43.11,94.18-265.58,4.18-5.55,2.92-22.42,18.38.3a152.17,152.17,0,0,1,28.57,6.59L308.36,146l10.71-19.75s17.38,15.09,13.12,25.75-11.62,24.07-11.62,24.07,15.59-16.86,17.1-15.3,14,20.14,6.67,29.73L335,202.57l20.64-13.42s22.17,19.09,8.19,30.69-10.31,6-10.31,6l21.44.35s18.5,24.33,5.58,34.33l-14.93,6.91,19.21,1.84s20.85,15.93,7,22.46l-23.06,4.35L394,307.49s31,17.61,1.47,40.11l-22.56.66,21.8,9.54s12.65,7.87.19,19.93Z" transform="translate(-112.4 -101.31)"/><path class="cls-2" d="M314.54,314.52c.3,1.87-6.77-24.85-6.77-24.85s4.34-15.33,6.77-13.8,6.25,3.83,6.25,3.83l-6.51,10,14.94-10,7.66,3.07S311.34,295,314.54,314.52Z" transform="translate(-112.4 -101.31)"/><path class="cls-1" d="M118.58,378.29S74.92,148.5,219.69,184.5c0,0,31.4,16.85,16.08,36,0,0,48.26,10,45.19,21.45,0,0,12,15,3.42,18s-34-25.68-50.14-8.83-40.57,26-35.6,42.9,3.43,85.78,15.69,84.25Z" transform="translate(-112.4 -101.31)"/><path class="cls-3" d="M209.73,207.48s-16.08,2.3-6.89,13.79,7.92,2.69,11.49,0C217.45,218.91,215.06,203.91,209.73,207.48Z" transform="translate(-112.4 -101.31)"/><circle class="cls-4" cx="203.67" cy="240.77" r="31.19"/><path class="cls-2" d="M347.94,302s-14.21-5.25-20.31,1a49.39,49.39,0,0,1-14.12,9.69l8.17-14.74,17.95-6.68Z" transform="translate(-112.4 -101.31)"/><path class="cls-5" d="M289.68,260.81S239.35,265.48,235,252s-3.52-18.14-3.52-18.14,9.29-10.42,10.47-6.14,46.64,21.56,46.64,21.56Z" transform="translate(-112.4 -101.31)"/><path class="cls-6" d="M243.07,220.08c2.13,1,53.92,4.2,57.7,26.93s-16.39,13-16.39,13-12.92-12.78-32-17.37-37.79,1-25.52-19.93S243.07,220.08,243.07,220.08Z" transform="translate(-112.4 -101.31)"/><path class="cls-3" d="M325.22,321.87s-1.7,13.44-2.89,16,9-6,8.4-8.86S325.22,321.87,325.22,321.87Z" transform="translate(-112.4 -101.31)"/><path class="cls-3" d="M332.37,337.52c1-2.21,1-6.29,1-6.29l3.49,3.15C336.11,335.48,332.37,337.52,332.37,337.52Z" transform="translate(-112.4 -101.31)"/><path d="M204.71,221.44s-3.4-8.87,1.53-8.78c0,0,4.26-3.15,6.47,0s2.38,6.06,1.19,7.08S209.34,227.05,204.71,221.44Z" transform="translate(-112.4 -101.31)"/><path class="cls-3" d="M209.1,213.78s1.91-2,2.59,0,.51,2.49,0,3.2a18.15,18.15,0,0,1-2.59,2.25Z" transform="translate(-112.4 -101.31)"/><path class="cls-7" d="M245.22,226.73s4.33-3.16,7.89,4.5S245.22,226.73,245.22,226.73Z" transform="translate(-112.4 -101.31)"/><path class="cls-3" d="M260.56,227s27.12,6.49,29.12,12.62S260.56,227,260.56,227Z" transform="translate(-112.4 -101.31)"/></svg>