<svg id="Lag_1" data-name="Lag 1" xmlns="http://www.w3.org/2000/svg" viewBox="0 0 205.18 208.55"><defs><style>.cls-1{fill:none;stroke:#000;stroke-miterlimit:10;}.cls-2{fill:#db7575;}</style></defs><path class="cls-1" d="M236.83,162.9" transform="translate(-134.21 -39.89)"/><path class="cls-2" d="M322.66,171.4c-8.66.77-17.31,1.71-26,2.34a132.34,132.34,0,0,1-26.19-1c-4.3-.55-8.59-1.17-12.89-1.72a72.41,72.41,0,0,0-11.84-1c-7,.22-14.58,1.85-21.07-1.5a1.48,1.48,0,0,1-.75-1.29c0-1.58,1.45-2.5,2.49-3.55l3.72-3.71.67-.66c-1.86,0-3.73-.05-5.6-.06-4.91,0-9.82.09-14.73.17-9.55.16-60.23-3.39-28.75-4.14,7.17-.44,14.28.15,21.47.15a98.8,98.8,0,0,1,10.75.16,85.63,85.63,0,0,0,10.5.37c.39,0,6.35.37,8.68.35.25,0,.49,0,.74,0l1.6-1.57c-5.61.14-11.22.14-16.83.05-22.14-.34-54-1.08-76.13.28-1.94.12-2.62-3.07-.7-3.19,6.2-.38,22.8-1.16,29-1.18,22.16,0,44.3,1.67,66.46,1,.45,0,.91,0,1.37,0q3.28-3.18,6.64-6.31c2.35-2.18,4.79-4.14,6.5-6.87,1.28-2,2.32-4.22,3.69-6.21a19.68,19.68,0,0,1,5-5c1.65-1.18,3.48-2,5.21-3.09a13.18,13.18,0,0,0,4.55-4.54c3.9-6.35,6-14.36,11.84-19.28a10.73,10.73,0,0,1,3.81-3c4.7-2.41,10.11-3.44,15.27-4.28a121.24,121.24,0,0,1,13.43-1.5c4.39-.21,8.76-.83,13.14-1.31a104.27,104.27,0,1,0,11.6,80.27C333.81,170.56,328.22,170.9,322.66,171.4ZM217.6,71.37c.79-.17,10.73-2,14.73.07,6.32,3.28,14,12.81,12,20.5.08.37.15.75.2,1.14,1.16,9-7.62,14.94-15.25,17-7.89,2.07-17.1,1.16-22.22-5.82C199.37,93.71,202.92,72.37,217.6,71.37Zm47.58,166.7c-3.56.94-15.15,3.06-17,3.37a52.23,52.23,0,0,1-10.52.83,74.13,74.13,0,0,1-19.5-3.69c-3.29-1-6.52-2.24-9.81-3.28-2.84-.89-5.71-1.65-8.53-2.61a62.93,62.93,0,0,1-14.82-7c-5-3.34-9.16-7.63-13.37-11.88a123,123,0,0,1-12.94-14.72,80.24,80.24,0,0,1-4.4-7,23.08,23.08,0,0,1-2.74-6.35,9.39,9.39,0,0,1-.13-3.58c-.55-2.44-.78-5.13.42-7.39,2-3.75,6.85-3.67,10.46-3.14,1,.14,2,.35,3,.58a51.09,51.09,0,0,1,5.54-1.79c3.58-.86,7.49-.82,9.62,2.75,1.17,2,1,4.27,1.68,6.4a3.94,3.94,0,0,0,2.17,2.66,8.82,8.82,0,0,0,3.76.06c2.72-.27,5.17-.28,7.39,1.51,1.06.86,2,2,3.09,2.71a11.06,11.06,0,0,0,2.91,1.26c2.24.68,5.14,1.43,6.36,3.67,1.13,2.09-.1,4.88-.38,7a3.69,3.69,0,0,0,1.18,3.46,5.33,5.33,0,0,0,2.76,1.43c2.41.5,5-.13,7.39-.53,3.45-.58,6.94-1,10.41-1.46a34.54,34.54,0,0,1,8.67-.54,3.84,3.84,0,0,1,3.29,1.84c.58,1.13.52,2,1.26,3a6.06,6.06,0,0,0,4.8,2.61c2.09,0,4.08-.88,6.12-1.27a8.41,8.41,0,0,1,6.29.85,11,11,0,0,1,4.24,6.08c0,.15.07.31.11.46a1.63,1.63,0,0,1,.42.08c6.93,2.32,15,4.06,17.56,12.53S268.54,237.18,265.18,238.07Zm67.41-51.83a32.59,32.59,0,0,0-2.39,3.21c-1.5,2.24-3,4.57-5.18,6.18-2.58,1.88-5.6,2-8.65,1.55-7.77-1.12-14.93-6.07-23-4.63-3.81.69-7.49,2-11.38,2.13a109.81,109.81,0,0,1-12.57-.14,80.88,80.88,0,0,1-12.34-2.34,24.49,24.49,0,0,1-5.54-1.89c-1.79-.92-3.46-2.07-5.26-3a33.89,33.89,0,0,0-11.89-3.61c-4-.37-7.76.58-11.69.73a14.12,14.12,0,0,1-5.4-.71,40.06,40.06,0,0,0-5-1.92,27.47,27.47,0,0,0-6.66-.12c-1.51,0-3.36.12-4.73-.68-3.47-2,1.25-5.14,3-6,3.5-1.65,7.32-1.84,11.09-2.42,1.91-.29,3.67-.94,5.55-1.37a16.3,16.3,0,0,1,5.91-.06c2,.27,3.9.73,5.87.86s4.07,0,6.09-.08a104.81,104.81,0,0,1,12,.28c4.17.39,8.26,1.35,12.41,1.89s8.53,1.5,12.84,1.26c2.92-.16,4.56.24,7.46,0a22.24,22.24,0,0,1,4.47-.38c.85.12,14.23-.13,18.75-.53,8.85-.79,17.94-1.86,26.39,1.87a3.6,3.6,0,0,1,2.21,2.9,14.36,14.36,0,0,1-3.73-.31c-4-1.75-8.39-2.06-12.67-2s-8.71.54-13.1.49a117.28,117.28,0,0,0-13.52.23c-4.22.44-13.17,2.48-13.33,2.5a17.38,17.38,0,0,1-7,1.17c-1.25,0-3-.65-3.76,0-2,.7,5.47,1.83,8.37,1.91,2.74.08,10-.86,10.18-.69l1.47-.18c2.16-.28,4.32-.5,6.49-.68a1.38,1.38,0,0,1,.52-.1h.81c1.82-.13,3.63-.23,5.46-.27,5.29-.13,10.59.17,15.88.08,5-.09,10.07-.28,15,.76C333.29,182.45,333.05,185.71,332.59,186.24Z" transform="translate(-134.21 -39.89)"/></svg>