<svg xmlns="http://www.w3.org/2000/svg" viewBox="0 0 596.03 842.64"><defs><style>.cls-1{fill:#efd3e6;}.cls-1,.cls-10,.cls-11,.cls-13,.cls-14,.cls-15,.cls-16,.cls-17,.cls-18,.cls-19,.cls-2,.cls-21,.cls-22,.cls-24,.cls-3,.cls-4,.cls-5,.cls-6,.cls-7,.cls-8,.cls-9{stroke:#1d1d1b;}.cls-1,.cls-10,.cls-11,.cls-13,.cls-14,.cls-15,.cls-16,.cls-17,.cls-18,.cls-19,.cls-2,.cls-21,.cls-22,.cls-23,.cls-24,.cls-3,.cls-4,.cls-5,.cls-6,.cls-7,.cls-8,.cls-9{stroke-miterlimit:10;}.cls-1,.cls-13,.cls-24,.cls-7,.cls-8{stroke-width:0.75px;}.cls-2{fill:#cbbba0;}.cls-22,.cls-3{fill:#69430f;}.cls-4{fill:#c85c8c;}.cls-23,.cls-24,.cls-5{fill:none;}.cls-20,.cls-6,.cls-9{fill:#7cba39;}.cls-7{fill:#5b892a;}.cls-8{fill:#517c25;}.cls-9{stroke-width:0.25px;}.cls-10{fill:#ed6fa7;}.cls-11{fill:#aa191c;}.cls-12,.cls-21{fill:#1d1d1b;}.cls-13{fill:#936037;}.cls-14{fill:#c74b59;}.cls-15{fill:#3a0f13;}.cls-16{fill:#941445;}.cls-17{fill:#c91147;}.cls-18{fill:#feead5;}.cls-19{fill:#ededed;}.cls-22{stroke-width:3px;}.cls-23{stroke:#7d4e24;stroke-width:9px;}</style></defs><g id="Lag_3" data-name="Lag 3"><rect class="cls-1" x="0.38" y="0.38" width="595.28" height="841.89"/></g><g id="Lag_2" data-name="Lag 2"><path class="cls-2" d="M495,450.3s21.76,21.38,28.3,40.16,22.22,68.11,22.22,68.11l-86.08,47.77L226.54,625.08l-185.1,5.35,9.18-37.09s5.7-25.1,26.39-58.52,158-115.17,157.6-117.47l169.29-8.5Z" transform="translate(0.38 0.38)"/><polygon class="cls-3" points="470.36 600.87 449.65 542.96 449.65 483.95 449.65 444.35 493.21 448.98 510.84 470.12 520.3 553.52 520.3 573.15 470.36 600.87"/><polygon class="cls-3" points="54.11 583.37 86.98 511.81 161.84 440.44 192.73 420.01 238.4 413.26 308.04 556.1 334.96 616.76 226.92 625.45 181.91 542.96 142.91 502.35 113.65 511.81 81.82 538.03 54.11 583.37"/><path class="cls-4" d="M229.47,359.24c1-.67,91.35-1.68,91.35-1.68l126.67-2.78s-1.87,81.93-.41,81.46-162.19,0-162.19,0H229.47Z" transform="translate(0.38 0.38)"/><polyline class="cls-5" points="301.94 500.36 371.76 514.9 416.96 479.71"/><path class="cls-5" d="M248.54,406.67" transform="translate(0.38 0.38)"/><path class="cls-2" d="M247.48,441.86l19.71,58s60.32,34.82,77,34.82S410,512.41,410,512.41l26.27-44.78-13.76-44.16s1.25-5.06-8.13-13.56-23.17-3.79-23.17-3.79L387.56,438l-51.28-2.8-45.86-15.78-28.25-2.58-14.69,25.07" transform="translate(0.38 0.38)"/><path class="cls-5" d="M472.72,489.69" transform="translate(0.38 0.38)"/><path class="cls-5" d="M371.39,363" transform="translate(0.38 0.38)"/><path class="cls-5" d="M312,382.05" transform="translate(0.38 0.38)"/><path class="cls-6" d="M406.64,118.65c1.9-12.52,15.93-15.33,28-8.94,10.62,1.43,19.76,19.77,11.43,24.62-1.45.84,3.24,3.06-21.89,14.53-11.44,5.92-43.76,46.37-42,47.88l-15-11.93c10.48-4.29,25.32-22.08,37.85-35.95C408.81,144.24,407,126.77,406.64,118.65Z" transform="translate(0.38 0.38)"/><path class="cls-7" d="M415.47,111.9c-2.91,4.12,1.22,17.81,5.6,21.08s20,1.43,22.85-.54-.08-13.09-8.23-18.16C429.36,110.13,418.37,107.79,415.47,111.9Z" transform="translate(0.38 0.38)"/><path class="cls-6" d="M196.73,157.86c-6-11.12-20.2-9-29.34,1.12-9.49,5-11.83,25.33-2.35,27,1.65.3-2,4,25.54,6.2,12.77,1.67,56.94,28.68,55.78,30.71l10-16.32c-11.32-.45-31.33-12.13-47.84-20.89C203.41,182.65,199.17,165.61,196.73,157.86Z" transform="translate(0.38 0.38)"/><path class="cls-8" d="M185.13,154.52c4.16,3.1,5,17.94,2,22.59s-18.32,8-21.71,7-4.43-12.92,1.48-20.59C171.44,157.34,181,151.42,185.13,154.52Z" transform="translate(0.38 0.38)"/><path class="cls-9" d="M346.43,284.63" transform="translate(0.38 0.38)"/><path class="cls-10" d="M236.93,513.37" transform="translate(0.38 0.38)"/><path class="cls-10" d="M218.19,505.34c15.06,5.17,60.25,5.85,69.06,7.65,5.28,1.08,9.31,9.18,14.41,2.68,23.62-30.12-19-57.94-29.16-80.7s-7.65-40.92-7.65-40.92l-2.05-5.52L305,331.33s97.9,14.92,99.43,14.54,13.7,10.19,13.7,10.19L416.68,363s9.37,63.78,10.32,93-21,64.24-18.74,68.83,3.45,14,10.65,16.82,25.49.31,37.54-22.56,33.56-37,41.3-50.1,3-38.82-1.91-45.13-30.5-12.33-35.95-19.5-4.87-78.74-8.79-92.55-18.46-53.45-26.77-66.16-24.67-34.9-35.43-45.51-39-40.16-69.74-19.89c-69.8-1.62-81.84,57.75-81.84,57.75s-28.4,51.92-27.92,125-12.24,104.3-9.18,121,18,20.26,18,21.41" transform="translate(0.38 0.38)"/><path class="cls-6" d="M245.46,318.84a49.19,49.19,0,0,0,.41-5.28c.67-14,5-29.95,6.66-36.29,1.85-7,1.87-5.9,1.87-5.9a105.6,105.6,0,0,1,4.23-30.87,55.63,55.63,0,0,1,39.24-37.69c11.14-2.89,15.35-1,16.48-1.33C316,201,328,196.05,337,196.05s20.9,2.66,28.93,13.94,19.51,16.25,22.76,19.79,20.27,47.13,20.27,47.13,8.41,20.85,9.94,25,.38,49.91,0,54.88c-.32,4.1-4.54,25.78-11.69,38.6a54.19,54.19,0,0,0-6.43,20.76l-.27,2.6a56.3,56.3,0,0,1-4.15,16c-1.79,4.21-4.05,8.61-6.14,10.16l-1.38,1a55.76,55.76,0,0,1-36,10.71c-4.94-.27-9.26-.75-10.59-1.59-2.66-1.68-14.25-4.08-20.25-5.24a56.23,56.23,0,0,1-7.88-2.13c-6.74-2.37-19.2-7-19.48-9.27-.38-3.06-14.47-8.09-21.61-18.74,1.79-3.11-17.78-52-17.78-52S244.58,324.55,245.46,318.84Z" transform="translate(0.38 0.38)"/><path class="cls-11" d="M370.83,354c-.39-1-7.2-9.23-13.91-14.45-3.5-1.62-18-5.42-26.24-.89s-9.13-4.94-24.38,6.05c-10.08,7.41-8.37,14.5-8.61,17.76-.25,3.54,8.27,22.7,7.46,22.37,0,0,4,14,36,9.89,31.82-4.05,30.33-18.91,30.4-20.65C371.83,367.48,375,359.18,370.83,354Z" transform="translate(0.38 0.38)"/><path class="cls-12" d="M346.24,307c2.82,2.3,5.67,4.59,8.33,7.1a51.34,51.34,0,0,1,7.3,8.2l0,0a41.57,41.57,0,0,1,5.86,9.14c1.57,3.25,3,6.5,4.49,9.81a91.06,91.06,0,0,1,3.09,10.36c.87,3.48,1.62,7,2.29,10.52-.91-3.47-1.88-6.93-2.86-10.37s-2-6.88-3.34-10.18c-1.48-3.21-3-6.52-4.57-9.7a40.9,40.9,0,0,0-5.61-9l0,0v0a59.84,59.84,0,0,0-7-8.28C351.59,311.91,348.9,309.45,346.24,307Z" transform="translate(0.38 0.38)"/><path class="cls-12" d="M293.44,380.4c-.88-5.5-1.51-11-2-16.59-.25-2.78-.36-5.57-.44-8.36a62.39,62.39,0,0,1,.29-8.41,35.56,35.56,0,0,1,2.31-8.11c1-2.61,2.16-5.17,3.42-7.65a159.9,159.9,0,0,1,8.23-14.55c-1.32,2.45-2.63,4.9-3.87,7.39s-2.51,5-3.67,7.49-2.3,5.05-3.26,7.64a34.39,34.39,0,0,0-2.17,7.92c-.65,5.46-.31,11.05-.07,16.59.14,2.77.32,5.55.53,8.32S293.21,377.63,293.44,380.4Z" transform="translate(0.38 0.38)"/><path class="cls-13" d="M311.29,265.1c-1.67-.65-33.53-3.44-39.65,3.25a41.47,41.47,0,0,0-8.41,14.15s8.41-9.14,15.48-10.52,31.53,1.32,32.32,1S313,265.75,311.29,265.1Z" transform="translate(0.38 0.38)"/><path class="cls-13" d="M336.84,261.56c0,2.33,1.3,7.75,6.31,7.46s22.23-8.43,30.55-6.74,14.92,8.89,14.92,8.89a83.19,83.19,0,0,0-11.05-12.05c-2.76-2.35-18.7-3-22.51-2.28S336.84,260.33,336.84,261.56Z" transform="translate(0.38 0.38)"/><path class="cls-12" d="M351,283a42.69,42.69,0,0,1,7.06-3.2,28.31,28.31,0,0,1,15.45-1.54A42.68,42.68,0,0,1,381,280c-2.59,0-5.15-.1-7.69-.17a64.61,64.61,0,0,0-7.51.11,36.69,36.69,0,0,0-3.67.57c-1.24.22-2.46.53-3.71.8C356,281.82,353.5,282.44,351,283Z" transform="translate(0.38 0.38)"/><path class="cls-12" d="M302,287.81c-2.62.11-5.19.19-7.75.34a56.68,56.68,0,0,0-7.54.91,46,46,0,0,0-7.24,2.21c-2.39.91-4.75,1.94-7.15,3a32.16,32.16,0,0,1,6.52-4.4,29.73,29.73,0,0,1,7.47-2.75,28.4,28.4,0,0,1,4-.52,37.36,37.36,0,0,1,4,0A34.41,34.41,0,0,1,302,287.81Z" transform="translate(0.38 0.38)"/><path class="cls-12" d="M344.33,276.8c-2.17,2.34-4.5,4.55-6.37,7-.43.59-.94,1.31-.78,1.87a9.48,9.48,0,0,0,1.12,2,35.49,35.49,0,0,0,3,3.7q3.24,3.51,6.37,7.12c2.06,2.43,4.08,4.89,6,7.47l-.07.06a94,94,0,0,1-6.71-6.83c-2.09-2.41-4.12-4.88-6-7.48L338,287.89a15.35,15.35,0,0,1-1.38-2,1.84,1.84,0,0,1,.06-1.39,6.35,6.35,0,0,1,.56-1.14,20,20,0,0,1,3.22-3.63,33.82,33.82,0,0,1,3.78-3Z" transform="translate(0.38 0.38)"/><path class="cls-12" d="M307.26,278.73a29.25,29.25,0,0,1,3.35,2.72,24,24,0,0,1,2.92,3.2,14.07,14.07,0,0,1,1.13,1.87,3.73,3.73,0,0,1,.51,2.19,10.85,10.85,0,0,1-.89,2c-.35.63-.69,1.27-1,1.89a63.88,63.88,0,0,1-4.87,7.08,68.14,68.14,0,0,1-5.75,6.38l-.08-.06c1.58-2.4,3.28-4.69,5-7l5.25-6.74a11.76,11.76,0,0,0,2.08-3.64,2.88,2.88,0,0,0-.67-1.84,17.11,17.11,0,0,0-1.31-1.64c-1.82-2.13-3.79-4.18-5.67-6.35Z" transform="translate(0.38 0.38)"/><path class="cls-14" d="M304.91,353.92l-1.9,4.44,11.84-1.76,18.94-3.25,15.87-1,13.19,3,3.14-.27-5.46-6.54-7.43-3.73-11.48-1L328,345.41s-11.39-.67-15.37,1.8A40.74,40.74,0,0,0,304.91,353.92Z" transform="translate(0.38 0.38)"/><path class="cls-15" d="M367.52,367.5l-.37,5.6a1.88,1.88,0,0,1-1.92,1.38l-18.94-1.13a1.9,1.9,0,0,0-.53,0l-8.24,1.87a1.84,1.84,0,0,1-.66,0l-13.69-1.78a1.87,1.87,0,0,0-1.24.28l-10.36,6.53a1.89,1.89,0,0,1-2,0h0c-1-.64-2.48-4.41-1.67-5.26l7.79-4.33a1.76,1.76,0,0,1,.81-.5l11.1-5.79c.59-.18,1.72,2.25,2.21,2.64l4.12,3.33a1.88,1.88,0,0,0,2.2.12l3.19-2.07s-1.23-2-1.19-2l4.39-2a5.87,5.87,0,0,1,2.86-.57c2.41.58,8.34,3.46,8.57,3.46L366,369.65C367.07,369.86,367.81,366.44,367.52,367.5Z" transform="translate(0.38 0.38)"/><path class="cls-16" d="M366.62,370c-1.69.71-3.4,1.39-7.94.29-2.36-1.26-5.76-3.71-7.93-4.24a57.78,57.78,0,0,0-7.94-1.11c-1,0-2,.32-3,2.1s-2,4-3.25,4.3-4.39-.45-5.33-1.72-.75-3.2-2.51-3.15a23.76,23.76,0,0,0-7.94,1.67c-2.21,1.07-5.72,2.28-6.6,3.2s-6.22,6.34-6.22,6.34l-3.53-6.41-2.8-6.78.42-.7,3.43.66,16.26-6.4s12-3.63,12.09-3.63,14.2-2.68,14.2-2.68l13.38,2.58,5.54,2.06,1.06,3.11V368Z" transform="translate(0.38 0.38)"/><path class="cls-17" d="M310.22,381.39a8.88,8.88,0,0,0,2.27-.7c.71-.43,7.53-6.5,10.69-7.26s12.82,1.14,13.76,1.14,6.89-2.07,11.76-2.2,5.85.69,9.75,1.15l3.92,1.53.67,4-20.55,5.09h-25l-4.39-1.05Z" transform="translate(0.38 0.38)"/><path class="cls-18" d="M310.22,382.08H317l4.68,1.43,13.69-.72,10.41-2.29,7.64-.76,1.25-2.11,7.07-.76v-2.3h5a15.2,15.2,0,0,1-5.05,7.06c-3.46,3.24-9.4,4-16.45,3.7l-6.77,0a79.47,79.47,0,0,1-17,2.06c-4.44-.61-7.56-1.93-9.62-3.84l-1.6-1.43" transform="translate(0.38 0.38)"/><path class="cls-19" d="M368,357.58l-2,.83a3,3,0,0,1-2.55,1.2,14.72,14.72,0,0,1-3.95-1.58,8.09,8.09,0,0,1-3.63.19,13.68,13.68,0,0,1-3.64-2.39s-4.29.43-5.26.1a9.84,9.84,0,0,1-2-1.1,4,4,0,0,1-1,2.63c-1,.9-7.72,1.6-8.34,1.05L333.85,357a5,5,0,0,1-1.44,1.82c-.89.62-7,1.82-8,1L322.28,358a9.88,9.88,0,0,1-1,1.72c-.76,1.1-5.5.15-5.5.15a11.45,11.45,0,0,1-2.67,2,14.48,14.48,0,0,1-4.26.67,9.82,9.82,0,0,1-3.28,1.9c-1.36.25-3.88-.87-3.88-.87l2.15-7,2.78-.71s2.8-2.73,4.43-3a9.9,9.9,0,0,1,4.08.78s1.61-2.19,3-2.56,4,.76,4,.76,2.32-3.69,5-4.36,6.16,1.75,6.16,1.75,3.1-3.21,5.46-3.45,5.73,3.16,5.73,3.16,2.81-1.63,4.1-1.53,4.35,2.1,4.35,2.1,3.39-.81,4.44-.47a19.27,19.27,0,0,1,3.59,2.43l3.6,1.14Z" transform="translate(0.38 0.38)"/><path class="cls-20" d="M343.58,282.5s2.8-4.48,3.63-5.41a24.93,24.93,0,0,1,4.26-2.76" transform="translate(0.38 0.38)"/><path class="cls-12" d="M343.58,282.5c.95-1.69,2-3.33,3.09-4.93a6.53,6.53,0,0,1,2.24-1.87c.83-.5,1.69-.95,2.56-1.37-.83.5-1.65,1-2.46,1.53a6.75,6.75,0,0,0-2.14,1.86c-.57.78-1.1,1.59-1.64,2.39Z" transform="translate(0.38 0.38)"/><path class="cls-20" d="M346.24,283.07a34.64,34.64,0,0,1,2.33-3.58c.89-1.08,3.62-2.15,3.62-2.15" transform="translate(0.38 0.38)"/><path class="cls-12" d="M346.24,283.07a22.1,22.1,0,0,1,2.22-3.65,6.15,6.15,0,0,1,1.76-1.25,12.63,12.63,0,0,1,2-.83c-.64.31-1.27.64-1.88,1a6.7,6.7,0,0,0-1.66,1.25c-.45.54-.83,1.14-1.23,1.72Z" transform="translate(0.38 0.38)"/><path class="cls-20" d="M352.19,289.53a11.49,11.49,0,0,1-3.87-1.08,4.9,4.9,0,0,1-2.08-1.65" transform="translate(0.38 0.38)"/><path class="cls-12" d="M352.19,289.53a9.57,9.57,0,0,1-3.3-.67,8,8,0,0,1-1.48-.84,3.79,3.79,0,0,1-1.17-1.22,4.79,4.79,0,0,0,1.27,1.06,10.84,10.84,0,0,0,1.47.77,12.21,12.21,0,0,0,1.58.53C351.09,289.3,351.64,289.43,352.19,289.53Z" transform="translate(0.38 0.38)"/><path class="cls-20" d="M343.58,286.09a21.45,21.45,0,0,0,3,4,17,17,0,0,0,3.95,2.44" transform="translate(0.38 0.38)"/><path class="cls-12" d="M343.58,286.09c.45.67.92,1.33,1.4,2a15.06,15.06,0,0,0,1.54,1.83,11.77,11.77,0,0,0,1.9,1.45c.68.42,1.38.83,2.09,1.2a16.24,16.24,0,0,1-2.19-1,9.81,9.81,0,0,1-2-1.43,12.61,12.61,0,0,1-1.53-1.9A20,20,0,0,1,343.58,286.09Z" transform="translate(0.38 0.38)"/><path class="cls-21" d="M341.3,321c-4.6,1.74-9.57-.91-9.64-1.47s5.11-6.82,5.11-6.82l5.88-.75,2.65,7.18Z" transform="translate(0.38 0.38)"/><path class="cls-21" d="M323,321.84c-4.56,1.67-9.45-.79-9.52-1.33s5.09-6.45,5.09-6.45l5.83-.74,2.57,6.74Z" transform="translate(0.38 0.38)"/><path class="cls-20" d="M327.09,321.94c-1.14,0-1.85-1.7-2.25-2.77-.73-1.94-2.22-4.66-4.7-3.61a11.9,11.9,0,0,0-5.38,4.74,2.1,2.1,0,0,0-.13.26c-.24.54-1.3,2.78-2.74,3.53-1.65.86-2.8-.93-3.44-1.94a14.48,14.48,0,0,1-1.22-5.59c0-1.58,3.37-5.73,3.37-5.73,1-1.25,3-1.15,4-2.45,1.34-1.8,2.9-9.82,9.91-11a11.68,11.68,0,0,1,8,.86c5.81,3.08,3.08,7,8.39,9,4.47,1.69,7.61,7.34,8.5,9.09a2.79,2.79,0,0,1,.29,1.07c.24,5.58-4.53,4-5.78,3.53s-3-5.8-7-6.31c-2.2-.27-3,1.73-3.19,3.59-.21,1.65-.87,3.65-2.54,3.62Z" transform="translate(0.38 0.38)"/><path class="cls-12" d="M327.09,321.94a2,2,0,0,1-1.45-1.05,9,9,0,0,1-.81-1.69,8,8,0,0,0-1.93-3.14,2.55,2.55,0,0,0-1.66-.69,3.85,3.85,0,0,0-1.75.54,11.48,11.48,0,0,0-3,2.22,9.77,9.77,0,0,0-2.09,3,7.37,7.37,0,0,1-2.33,2.95,1.91,1.91,0,0,1-1.92.15,4.16,4.16,0,0,1-1.42-1.31c-.19-.26-.36-.51-.53-.79a5,5,0,0,1-.4-.88,17.11,17.11,0,0,1-.5-1.83c-.13-.62-.23-1.24-.3-1.87,0-.31-.06-.63-.07-.95a2.6,2.6,0,0,1,.2-1,17,17,0,0,1,1.9-3.29c.35-.52.72-1,1.11-1.52a3.61,3.61,0,0,1,1.58-1.24c1.19-.52,2.36-.82,2.79-1.9A33.76,33.76,0,0,1,318,301a11.29,11.29,0,0,1,2.79-2.68,9.54,9.54,0,0,1,3.63-1.44h.09c-.09,0,.08,0,.15,0l.26-.06.54-.1c.36-.05.72-.09,1.09-.12a10.7,10.7,0,0,1,2.19,0,11.1,11.1,0,0,1,4.16,1.33,9,9,0,0,1,3.28,2.92c.84,1.24,1.21,2.66,1.91,3.75a6,6,0,0,0,3.12,2.3,12.13,12.13,0,0,1,3.57,2.45,25.36,25.36,0,0,1,4.87,7,2.75,2.75,0,0,1,.24,1.12,7.8,7.8,0,0,1,0,1.08,4.05,4.05,0,0,1-.76,2.07,2.86,2.86,0,0,1-2,1,5.75,5.75,0,0,1-2.15-.2,8.64,8.64,0,0,1-1-.32,2,2,0,0,1-.88-.69c-.44-.56-.8-1.16-1.2-1.74a11.38,11.38,0,0,0-2.76-3.1,5.33,5.33,0,0,0-1.88-.85,2.66,2.66,0,0,0-2,.21,3.07,3.07,0,0,0-1.2,1.64,9.39,9.39,0,0,0-.44,2,6.38,6.38,0,0,1-.67,2,2.11,2.11,0,0,1-1.65,1.19Zm0,0,4.21-.21a2.08,2.08,0,0,0,1.61-1.17,6.62,6.62,0,0,0,.64-2,10.32,10.32,0,0,1,.42-2.06,3.15,3.15,0,0,1,1.23-1.7,2.79,2.79,0,0,1,2.08-.24,5.28,5.28,0,0,1,1.94.85,11.89,11.89,0,0,1,2.87,3.09c.41.57.79,1.17,1.23,1.69a1.5,1.5,0,0,0,.77.58,6.63,6.63,0,0,0,1,.29,5.33,5.33,0,0,0,2,.14,2.45,2.45,0,0,0,1.66-.91,3.62,3.62,0,0,0,.62-1.85,8.68,8.68,0,0,0,0-1,2.39,2.39,0,0,0-.22-.92,24.34,24.34,0,0,0-4.89-6.65,11.31,11.31,0,0,0-3.38-2.22,6.76,6.76,0,0,1-3.55-2.59c-.81-1.28-1.17-2.64-1.93-3.72a8,8,0,0,0-3-2.59,10,10,0,0,0-3.81-1.18,11.34,11.34,0,0,0-2,0c-.33,0-.67.06-1,.11l-.5.09-.25,0c-.11,0-.11,0-.37.06h.09a9.22,9.22,0,0,0-5.87,3.71,18.87,18.87,0,0,0-1.88,3.12c-.54,1.11-1,2.25-1.58,3.41a3.57,3.57,0,0,1-.6.85,4,4,0,0,1-.85.6c-.6.31-1.21.49-1.76.72a3,3,0,0,0-1.34,1c-.39.48-.77,1-1.13,1.47a16.59,16.59,0,0,0-1.9,3.12,2.07,2.07,0,0,0-.19.81c0,.3,0,.61,0,.91.06.61.14,1.22.26,1.83a7.33,7.33,0,0,0,1.28,3.38,3.7,3.7,0,0,0,1.26,1.23,1.61,1.61,0,0,0,1.64-.1c2.12-1.31,2.53-4.18,4.47-5.84a11.34,11.34,0,0,1,3-2.22,4,4,0,0,1,1.79-.54,2.63,2.63,0,0,1,1.7.73,8.07,8.07,0,0,1,1.92,3.18,9,9,0,0,0,.79,1.69A1.92,1.92,0,0,0,327.09,321.94Z" transform="translate(0.38 0.38)"/><path class="cls-20" d="M306.9,284.74s-3.9-3.56-4.95-4.23a25.29,25.29,0,0,0-4.85-1.5" transform="translate(0.38 0.38)"/><path class="cls-12" d="M306.9,284.74l-2.23-1.86c-.74-.62-1.47-1.26-2.23-1.85a6.72,6.72,0,0,0-2.56-1.21c-.92-.29-1.85-.56-2.78-.81a27.46,27.46,0,0,1,2.83.62,6.65,6.65,0,0,1,2.67,1.2Q304.85,282.69,306.9,284.74Z" transform="translate(0.38 0.38)"/><path class="cls-20" d="M304.5,286a34.63,34.63,0,0,0-3.21-2.82,12.17,12.17,0,0,0-4.07-1.09" transform="translate(0.38 0.38)"/><path class="cls-12" d="M304.5,286l-1.62-1.38a20.86,20.86,0,0,0-1.65-1.33,6.63,6.63,0,0,0-1.93-.75c-.69-.18-1.38-.32-2.08-.45a13.79,13.79,0,0,1,2.12.26,6.06,6.06,0,0,1,2,.74A21.09,21.09,0,0,1,304.5,286Z" transform="translate(0.38 0.38)"/><path class="cls-20" d="M300.51,293.83a11.49,11.49,0,0,0,3.44-2.08,5.06,5.06,0,0,0,1.56-2.15" transform="translate(0.38 0.38)"/><path class="cls-12" d="M300.51,293.83A16.21,16.21,0,0,0,302,293a11.38,11.38,0,0,0,1.37-.93,9.94,9.94,0,0,0,1.21-1.13,5.38,5.38,0,0,0,.94-1.37,3.85,3.85,0,0,1-.8,1.49,8.57,8.57,0,0,1-1.2,1.21A9.47,9.47,0,0,1,300.51,293.83Z" transform="translate(0.38 0.38)"/><path class="cls-20" d="M307.87,288.19a21.58,21.58,0,0,1-1.78,4.68,17.08,17.08,0,0,1-3.14,3.41" transform="translate(0.38 0.38)"/><path class="cls-12" d="M307.87,288.19a18.93,18.93,0,0,1-.63,2.35,13.23,13.23,0,0,1-.95,2.23,10.12,10.12,0,0,1-1.52,1.92,16.06,16.06,0,0,1-1.82,1.59c.58-.55,1.14-1.13,1.68-1.72a11.52,11.52,0,0,0,1.44-1.91,14.82,14.82,0,0,0,1-2.18Q307.5,289.35,307.87,288.19Z" transform="translate(0.38 0.38)"/><path class="cls-20" d="M315.76,295.41a19.36,19.36,0,0,1,2.15-3.69c.7-.6,3.73-.33,3.73-.33" transform="translate(0.38 0.38)"/><path class="cls-12" d="M315.76,295.41a14.7,14.7,0,0,1,.75-1.9,9,9,0,0,1,1-1.78,1.23,1.23,0,0,1,.49-.36,2.18,2.18,0,0,1,.54-.15,5.2,5.2,0,0,1,1-.07,10.52,10.52,0,0,1,2,.24c-.68.05-1.35.08-2,.15a9.23,9.23,0,0,0-1,.14,1.67,1.67,0,0,0-.43.13.8.8,0,0,0-.31.25,18.67,18.67,0,0,0-1.09,1.64C316.49,294.27,316.14,294.84,315.76,295.41Z" transform="translate(0.38 0.38)"/><path class="cls-20" d="M315.76,290.81a22.47,22.47,0,0,1,2.15-3.45c.49-.31,2.27,0,2.27,0" transform="translate(0.38 0.38)"/><path class="cls-12" d="M315.76,290.81a13,13,0,0,1,1.39-2.89,3.88,3.88,0,0,1,.53-.67,1.29,1.29,0,0,1,.91-.21,5.69,5.69,0,0,1,1.59.32c-.54,0-1.08,0-1.58.06-.24,0-.52.07-.6.18a4.22,4.22,0,0,0-.43.6C317,289.07,316.44,290,315.76,290.81Z" transform="translate(0.38 0.38)"/><path class="cls-20" d="M336.84,294.26a39.41,39.41,0,0,0-2.34-3.45c-.38-.3-4.78,0-4.78,0" transform="translate(0.38 0.38)"/><path class="cls-12" d="M336.84,294.26c-.49-.58-.93-1.18-1.37-1.78l-.66-.9c-.11-.15-.22-.3-.33-.43s-.11-.14-.31-.17c-.7-.08-1.47-.06-2.2-.09s-1.5,0-2.25-.08a18.66,18.66,0,0,1,2.23-.3,13.32,13.32,0,0,1,2.28,0,1.14,1.14,0,0,1,.37.11,1,1,0,0,1,.26.25c.12.16.23.31.33.47s.42.63.6,1A19.81,19.81,0,0,1,336.84,294.26Z" transform="translate(0.38 0.38)"/><path class="cls-20" d="M336.46,289.5a22.8,22.8,0,0,0-2.89-2.62c-.71-.33-3.47,0-3.47,0" transform="translate(0.38 0.38)"/><path class="cls-12" d="M336.46,289.5c-.51-.37-1-.77-1.44-1.16s-.94-.82-1.41-1.14a1.45,1.45,0,0,0-.76-.21c-.29,0-.59,0-.9-.05-.61,0-1.23,0-1.85-.06a10.44,10.44,0,0,1,1.84-.33,6,6,0,0,1,.95,0,2.81,2.81,0,0,1,.49.05,1.53,1.53,0,0,1,.51.21,9,9,0,0,1,1.39,1.28A14.81,14.81,0,0,1,336.46,289.5Z" transform="translate(0.38 0.38)"/><path class="cls-5" d="M301.67,361.22c0-1.27,1.75-5.69,3.19-7.91s8.65-6.57,8.65-6.57l8.75-1.38h6.09l10.74-1.25,2.53-.3s9.24.71,11.48,1,5.93,3.22,7.43,3.73c2.42.81,6.91,8.32,7.52,9.39l.77,1.34c1,4.22-.21,9.3-2.08,14.54,0,0-1.86,9.68-10.85,10.73s-16.57.52-17.42.72-16.19,2.19-17,2.06-8.6-2.16-10.13-4.29c-.2.08-1.5-.46-2.42-3.49s-4.42-8.32-4.42-8.32-2.51-5.71-2.8-6.78A12.17,12.17,0,0,1,301.67,361.22Z" transform="translate(0.38 0.38)"/><path class="cls-5" d="M312.14,189c.27-.19-64.9-18.28-83.52,123-14.4,109.12,8.29,173.87,3.45,196.28" transform="translate(0.38 0.38)"/><path class="cls-5" d="M312.84,197.43c-2-.55-35.25-15.31-58,38.87-7.55,17.95-11.23,46.41-15.87,81.57-6.92,57.55,10.35,87.69,9.75,90.72C248,412,279.78,512.15,279.77,512.13" transform="translate(0.38 0.38)"/><path class="cls-5" d="M298.39,518.08s-32.12-70.87-37.08-91.14-7.51-64.89-7.51-64.89" transform="translate(0.38 0.38)"/><path class="cls-5" d="M318.7,188.12s40.9-17.79,72.26,23.13,50.1,99.79,52.78,105.48,11.09,109.45,11.09,109.45c-1.39,40,6.2,55.91,13.3,75.8" transform="translate(0.38 0.38)"/><path class="cls-5" d="M476.37,492.82s13.64-25.93,9.43-46c-1.28-6.11-9.21-11.28-12.23-16.83A172.91,172.91,0,0,1,463,406.67" transform="translate(0.38 0.38)"/><path class="cls-5" d="M459.89,404.38S489.34,428,492.3,440.06s-7.42,43.52-6.84,43.52" transform="translate(0.38 0.38)"/><path class="cls-5" d="M459.89,404.38s2.3,18.11,7.56,31.74,5.74,13.45,7.33,20.69,1.59,36,1.59,36" transform="translate(0.38 0.38)"/><path class="cls-5" d="M320.18,193.66s43.56-15.48,65.81,23.71,6.66,14.07,24.09,50.86,24.09,40.54,24.48,64.63,11.85,94.85,11.85,115.88-21.8,93.84-21.8,93.84" transform="translate(0.38 0.38)"/><polygon class="cls-20" points="326.98 326.8 327.55 317.03 332.57 317.03 332 326.8 326.98 326.8"/><path class="cls-12" d="M302.57,409.38c2.89,3,5.84,5.95,8.95,8.71a60.29,60.29,0,0,0,4.81,3.94,24.57,24.57,0,0,0,2.59,1.65c.93.46,1.85.92,2.81,1.32a44.26,44.26,0,0,0,11.89,3.3,47,47,0,0,0,6.17.41,25.93,25.93,0,0,0,6.09-.63,52.26,52.26,0,0,0,11.62-4.19q2.81-1.36,5.49-2.92c.9-.52,1.79-1.06,2.67-1.6l1.31-.83.33-.21a1.57,1.57,0,0,0,.25-.2,6.6,6.6,0,0,0,.51-.54,114.58,114.58,0,0,0,7.37-10c1.15-1.73,2.28-3.48,3.33-5.27.52-.9,1-1.81,1.46-2.75a12.94,12.94,0,0,0,.61-1.44,2.71,2.71,0,0,0,.2-1.51,2.81,2.81,0,0,1-.13,1.54,15.2,15.2,0,0,1-.54,1.47c-.41,1-.88,1.89-1.37,2.82-1,1.84-2.05,3.63-3.15,5.41a112.78,112.78,0,0,1-7.2,10.27c-.17.2-.34.4-.54.61a3.51,3.51,0,0,1-.36.29l-.32.22-1.31.87c-.88.56-1.78,1.11-2.68,1.64-1.81,1.06-3.65,2.06-5.53,3a52.8,52.8,0,0,1-11.81,4.36,26.75,26.75,0,0,1-6.31.6,49.15,49.15,0,0,1-6.29-.46,42.51,42.51,0,0,1-12.08-3.5c-1-.43-1.89-.91-2.81-1.41a25.29,25.29,0,0,1-2.65-1.75,58.07,58.07,0,0,1-4.76-4.1Q306.68,414.11,302.57,409.38Z" transform="translate(0.38 0.38)"/><path class="cls-22" d="M396.75,334.5" transform="translate(0.38 0.38)"/><path class="cls-22" d="M418.85,302" transform="translate(0.38 0.38)"/><path class="cls-23" d="M488,306" transform="translate(0.38 0.38)"/><path class="cls-5" d="M379.14,416.76" transform="translate(0.38 0.38)"/><path class="cls-19" d="M362.13,350.19" transform="translate(0.38 0.38)"/><path class="cls-24" d="M248.69,408.59a532.88,532.88,0,0,0,3,58.52c3.36,29.82,10.63,43.82,10.63,43.82" transform="translate(0.38 0.38)"/><path class="cls-24" d="M245.41,509.65s-10.58-42.88-10.58-69.59,2.52-91.49,2.52-91.49" transform="translate(0.38 0.38)"/><path class="cls-24" d="M287.68,549.32" transform="translate(0.38 0.38)"/></g></svg>